<svg width="432" height="294" viewBox="0 0 432 294" fill="none" xmlns="http://www.w3.org/2000/svg">
<path d="M352.327 129.739C343.57 138.275 320.219 144.135 309.639 145.998H280.632H237.944H193.613H151.198H108.783H65C69.0645 189.879 99.8513 273.975 190.483 259.304C303.771 240.965 384.678 113.138 381 104.5C382.751 81.7373 364.003 59.9602 353.969 52C332.077 73.5433 343.753 112.802 352.327 129.739Z" fill="#1D1A3A"/>
<path d="M323 183C240.5 258.5 99 303.5 81 183H323Z" fill="#2B2552"/>
<ellipse cx="164.5" cy="217" rx="10" ry="12.5" fill="white"/>
<path fill-rule="evenodd" clip-rule="evenodd" d="M165.989 208.704C165.678 209.376 165.5 210.161 165.5 211C165.5 213.485 167.067 215.5 169 215.5C169.798 215.5 170.534 215.156 171.123 214.578C171.367 215.494 171.5 216.477 171.5 217.5C171.5 222.471 168.366 226.5 164.5 226.5C160.634 226.5 157.5 222.471 157.5 217.5C157.5 212.529 160.634 208.5 164.5 208.5C165.011 208.5 165.509 208.57 165.989 208.704Z" fill="#3A4D58"/>
<path d="M427.5 109C410.806 94.2915 388.44 100.028 379 104.5C332.5 230 67.5792 351 80 145.455H57.3578C55.557 174.047 60.2832 209.473 77.7278 238.331C98.7868 273.168 138.38 298.434 207.401 290.552C308.357 279.024 359.579 186.059 372 142C409 145.5 424.022 121.92 427.5 109Z" fill="#48408B"/>
<path d="M432 183H0C24.4 179.4 28.1667 167.167 27 161.5C50.2 188.3 82.3333 176 95.5 166.5C119 189 173.5 175.5 179.5 163.5C208.3 192.3 243 176 253 163.5C279 189 332 178 336.5 167C375.3 188.6 398.667 172.333 405.5 161.5C403.1 175.5 422.167 181.667 432 183Z" fill="#FFE566"/>
<path d="M147.5 234.5C134.5 240.5 97.5 241.333 79.5 239.5C91.5 259.5 124 296.5 197.5 290C171.1 286 153.833 251 147.5 234.5Z" fill="white"/>
<path d="M204.116 290.548C205.89 290.387 207.685 290.205 209.5 290C207.676 290.339 205.881 290.516 204.116 290.548C138.453 296.5 101.225 272.626 80 239.5C90.3287 239.781 109.427 240.841 110.5 240.166C123.352 249.984 140.146 255.11 158 256C165.174 269.1 182.285 290.943 204.116 290.548Z" fill="#BFDBDF"/>
<path fill-rule="evenodd" clip-rule="evenodd" d="M287 144.5V95H248V49V2H207.5V49H169H130V95H90V144.5H130H168.75H207.5H248H287Z" fill="#D395FF"/>
<path d="M90 144.5H57C55.1877 173.27 59.944 208.916 77.5 237.953M90 144.5V95H130M90 144.5H130M287 144.5H313.5C323.167 142.667 344.5 136.9 352.5 128.5C344.667 111.833 334 73.2 354 52C363.167 59.8333 381.6 81.1 380 103.5C389.5 99 412.2 93.7 429 108.5C425.5 121.5 409.3 146.6 372.5 143C360 187.333 309.6 278.9 208 290.5C138.539 298.431 98.6932 273.007 77.5 237.953M287 144.5V95H248M287 144.5H248M248 144.5H207.5M248 144.5V95M207.5 144.5H168.75M207.5 144.5V49M130 144.5H168.75M130 144.5V95M248 49V2H207.5V49M248 49V95M248 49H207.5M169 49H130V95M169 49L168.75 144.5M169 49H207.5M98.5 103.5V135.5M103.5 103.5V135.5M108.5 103.5V135.5M113.5 103.5V135.5M118.5 103.5V135.5M123.5 103.5V135.5M137.5 103.5V135.5M142.5 103.5V135.5M147.5 103.5V135.5M152.5 103.5V135.5M157.5 103.5V135.5M162.5 103.5V135.5M176 103.5V135.5M181 103.5V135.5M186 103.5V135.5M191 103.5V135.5M196 103.5V135.5M201 103.5V135.5M215 103.5V135.5M220 103.5V135.5M225 103.5V135.5M230 103.5V135.5M235 103.5V135.5M240 103.5V135.5M254 103.5V135.5M259 103.5V135.5M264 103.5V135.5M269 103.5V135.5M274 103.5V135.5M279 103.5V135.5M137.5 57V89M142.5 57V89M147.5 57V89M152.5 57V89M157.5 57V89M162.5 57V89M176 57V89M181 57V89M186 57V89M191 57V89M196 57V89M201 57V89M215 57V89M220 57V89M225 57V89M230 57V89M235 57V89M240 57V89M215 10.5V42.5M220 10.5V42.5M225 10.5V42.5M230 10.5V42.5M235 10.5V42.5M240 10.5V42.5M77.5 237.953C95.1666 239.469 136.1 239.9 150.5 231.5M130 95H248" stroke="#374A53" stroke-width="3" stroke-linecap="round" stroke-linejoin="round"/>
</svg>
